<svg width="200" height="150" viewBox="0 0 200 150" fill="none" xmlns="http://www.w3.org/2000/svg">
<rect width="200" height="150" fill="white"/>
<g filter="url(#filter0_d_85_1717)">
<rect x="25" y="44" width="70" height="25" fill="url(#paint0_linear_85_1717)"/>
</g>
<g filter="url(#filter1_d_85_1717)">
<rect x="105" y="81" width="70" height="25" fill="url(#paint1_linear_85_1717)"/>
</g>
<g filter="url(#filter2_d_85_1717)">
<rect x="25" y="81" width="70" height="25" fill="url(#paint2_linear_85_1717)"/>
</g>
<g filter="url(#filter3_d_85_1717)">
<circle cx="125" cy="56" r="10" fill="white"/>
<circle cx="125" cy="56" r="9.5" stroke="#57A5ED"/>
</g>
<g filter="url(#filter4_d_85_1717)">
<circle cx="155" cy="56" r="10" fill="white"/>
<circle cx="155" cy="56" r="9.5" stroke="#57A5ED"/>
</g>
<path d="M134 56C134 60.9706 129.971 65 125 65C120.029 65 116 60.9706 116 56C116 51.0294 120.029 47 125 47C129.971 47 134 51.0294 134 56Z" fill="url(#paint3_linear_85_1717)"/>
<path d="M164 56C164 60.9706 159.971 65 155 65C150.029 65 146 60.9706 146 56C146 51.0294 150.029 47 155 47C159.971 47 164 51.0294 164 56Z" fill="url(#paint4_linear_85_1717)"/>
<path d="M130 56C130 58.7614 127.761 61 125 61C122.239 61 120 58.7614 120 56C120 53.2386 122.239 51 125 51C127.761 51 130 53.2386 130 56Z" fill="white"/>
<rect x="106" y="82" width="68" height="23" fill="url(#paint5_linear_85_1717)"/>
<path d="M160 94L145 85.3397V102.66L160 94ZM125 95.5H146.5V92.5H125V95.5Z" fill="white"/>
<defs>
<filter id="filter0_d_85_1717" x="25" y="44" width="74" height="29" filterUnits="userSpaceOnUse" color-interpolation-filters="sRGB">
<feFlood flood-opacity="0" result="BackgroundImageFix"/>
<feColorMatrix in="SourceAlpha" type="matrix" values="0 0 0 0 0 0 0 0 0 0 0 0 0 0 0 0 0 0 127 0" result="hardAlpha"/>
<feOffset dx="2" dy="2"/>
<feGaussianBlur stdDeviation="1"/>
<feComposite in2="hardAlpha" operator="out"/>
<feColorMatrix type="matrix" values="0 0 0 0 0 0 0 0 0 0 0 0 0 0 0 0 0 0 0.1 0"/>
<feBlend mode="normal" in2="BackgroundImageFix" result="effect1_dropShadow_85_1717"/>
<feBlend mode="normal" in="SourceGraphic" in2="effect1_dropShadow_85_1717" result="shape"/>
</filter>
<filter id="filter1_d_85_1717" x="105" y="81" width="74" height="29" filterUnits="userSpaceOnUse" color-interpolation-filters="sRGB">
<feFlood flood-opacity="0" result="BackgroundImageFix"/>
<feColorMatrix in="SourceAlpha" type="matrix" values="0 0 0 0 0 0 0 0 0 0 0 0 0 0 0 0 0 0 127 0" result="hardAlpha"/>
<feOffset dx="2" dy="2"/>
<feGaussianBlur stdDeviation="1"/>
<feComposite in2="hardAlpha" operator="out"/>
<feColorMatrix type="matrix" values="0 0 0 0 0 0 0 0 0 0 0 0 0 0 0 0 0 0 0.1 0"/>
<feBlend mode="normal" in2="BackgroundImageFix" result="effect1_dropShadow_85_1717"/>
<feBlend mode="normal" in="SourceGraphic" in2="effect1_dropShadow_85_1717" result="shape"/>
</filter>
<filter id="filter2_d_85_1717" x="25" y="81" width="74" height="29" filterUnits="userSpaceOnUse" color-interpolation-filters="sRGB">
<feFlood flood-opacity="0" result="BackgroundImageFix"/>
<feColorMatrix in="SourceAlpha" type="matrix" values="0 0 0 0 0 0 0 0 0 0 0 0 0 0 0 0 0 0 127 0" result="hardAlpha"/>
<feOffset dx="2" dy="2"/>
<feGaussianBlur stdDeviation="1"/>
<feComposite in2="hardAlpha" operator="out"/>
<feColorMatrix type="matrix" values="0 0 0 0 0 0 0 0 0 0 0 0 0 0 0 0 0 0 0.1 0"/>
<feBlend mode="normal" in2="BackgroundImageFix" result="effect1_dropShadow_85_1717"/>
<feBlend mode="normal" in="SourceGraphic" in2="effect1_dropShadow_85_1717" result="shape"/>
</filter>
<filter id="filter3_d_85_1717" x="115" y="46" width="24" height="24" filterUnits="userSpaceOnUse" color-interpolation-filters="sRGB">
<feFlood flood-opacity="0" result="BackgroundImageFix"/>
<feColorMatrix in="SourceAlpha" type="matrix" values="0 0 0 0 0 0 0 0 0 0 0 0 0 0 0 0 0 0 127 0" result="hardAlpha"/>
<feOffset dx="2" dy="2"/>
<feGaussianBlur stdDeviation="1"/>
<feComposite in2="hardAlpha" operator="out"/>
<feColorMatrix type="matrix" values="0 0 0 0 0 0 0 0 0 0 0 0 0 0 0 0 0 0 0.1 0"/>
<feBlend mode="normal" in2="BackgroundImageFix" result="effect1_dropShadow_85_1717"/>
<feBlend mode="normal" in="SourceGraphic" in2="effect1_dropShadow_85_1717" result="shape"/>
</filter>
<filter id="filter4_d_85_1717" x="145" y="46" width="24" height="24" filterUnits="userSpaceOnUse" color-interpolation-filters="sRGB">
<feFlood flood-opacity="0" result="BackgroundImageFix"/>
<feColorMatrix in="SourceAlpha" type="matrix" values="0 0 0 0 0 0 0 0 0 0 0 0 0 0 0 0 0 0 127 0" result="hardAlpha"/>
<feOffset dx="2" dy="2"/>
<feGaussianBlur stdDeviation="1"/>
<feComposite in2="hardAlpha" operator="out"/>
<feColorMatrix type="matrix" values="0 0 0 0 0 0 0 0 0 0 0 0 0 0 0 0 0 0 0.1 0"/>
<feBlend mode="normal" in2="BackgroundImageFix" result="effect1_dropShadow_85_1717"/>
<feBlend mode="normal" in="SourceGraphic" in2="effect1_dropShadow_85_1717" result="shape"/>
</filter>
<linearGradient id="paint0_linear_85_1717" x1="60" y1="44" x2="60" y2="69" gradientUnits="userSpaceOnUse">
<stop stop-color="#57A5ED"/>
<stop offset="1" stop-color="#0F7EE6"/>
</linearGradient>
<linearGradient id="paint1_linear_85_1717" x1="140" y1="81" x2="140" y2="106" gradientUnits="userSpaceOnUse">
<stop stop-color="#57A5ED"/>
<stop offset="1" stop-color="#0F7EE6"/>
</linearGradient>
<linearGradient id="paint2_linear_85_1717" x1="60" y1="81" x2="60" y2="106" gradientUnits="userSpaceOnUse">
<stop stop-color="#57A5ED"/>
<stop offset="1" stop-color="#0F7EE6"/>
</linearGradient>
<linearGradient id="paint3_linear_85_1717" x1="125" y1="47" x2="125" y2="65" gradientUnits="userSpaceOnUse">
<stop stop-color="#57A5ED"/>
<stop offset="1" stop-color="#0F7EE6"/>
</linearGradient>
<linearGradient id="paint4_linear_85_1717" x1="155" y1="47" x2="155" y2="65" gradientUnits="userSpaceOnUse">
<stop stop-color="#57A5ED"/>
<stop offset="1" stop-color="#0F7EE6"/>
</linearGradient>
<linearGradient id="paint5_linear_85_1717" x1="140" y1="82" x2="140" y2="105" gradientUnits="userSpaceOnUse">
<stop stop-color="#57A5ED"/>
<stop offset="1" stop-color="#0F7EE6"/>
</linearGradient>
</defs>
</svg>
