<svg width="100" height="100" viewBox="0 0 100 100" fill="none" xmlns="http://www.w3.org/2000/svg">
<rect width="100" height="100" fill="#0F7EE6"/>
<path d="M25.8445 15.1477L73.3706 7.83598C73.9271 7.75036 74.4066 8.22984 74.321 8.78633L67.0093 56.3124C66.954 56.6719 66.6719 56.954 66.3124 57.0093L18.7863 64.321C18.2298 64.4067 17.7503 63.9272 17.8359 63.3707L25.1476 15.8446C25.2029 15.4851 25.485 15.203 25.8445 15.1477Z" stroke="#F5F5F5" stroke-width="1.66667"/>
<path d="M65.4922 17.7328C65.6067 16.9882 66.2066 16.413 66.9554 16.3298L81.1713 14.7502C82.2615 14.6291 83.1694 15.576 83.0026 16.6601L75.6844 64.2284C75.5699 64.973 74.97 65.5482 74.2212 65.6314L60.0053 67.211C58.9151 67.3321 58.0072 66.3852 58.174 65.301L65.4922 17.7328Z" fill="#F5F5F5"/>
<path d="M28.507 47.3515C28.6177 46.6324 29.1819 46.0682 29.9009 45.9576L53.6361 42.306C54.7491 42.1348 55.7081 43.0938 55.5369 44.2067L51.8853 67.942C51.7747 68.661 51.2105 69.2252 50.4914 69.3358L26.7562 72.9874C25.6432 73.1586 24.6842 72.1997 24.8555 71.0867L28.507 47.3515Z" fill="#F5F5F5"/>
<path d="M42.6246 26.1752C42.7353 25.4561 43.2995 24.8919 44.0185 24.7813L57.5577 22.6984C58.6706 22.5271 59.6296 23.4861 59.4584 24.5991L57.3754 38.1382C57.2648 38.8573 56.7006 39.4215 55.9816 39.5321L42.4424 41.615C41.3294 41.7863 40.3705 40.8273 40.5417 39.7143L42.6246 26.1752Z" fill="#F5F5F5"/>
<path d="M24.9169 87.8367V89.6667H18.4594V78.7842H20.7094V87.8367H24.9169ZM29.1765 81.8142C29.7565 81.8142 30.284 81.9067 30.759 82.0917C31.234 82.2767 31.6415 82.5417 31.9815 82.8867C32.3215 83.2267 32.584 83.6417 32.769 84.1317C32.954 84.6217 33.0465 85.1742 33.0465 85.7892C33.0465 86.4042 32.954 86.9592 32.769 87.4542C32.584 87.9442 32.3215 88.3617 31.9815 88.7067C31.6415 89.0517 31.234 89.3167 30.759 89.5017C30.284 89.6867 29.7565 89.7792 29.1765 89.7792C28.5915 89.7792 28.059 89.6867 27.579 89.5017C27.104 89.3167 26.6965 89.0517 26.3565 88.7067C26.0165 88.3617 25.7515 87.9442 25.5615 87.4542C25.3765 86.9592 25.284 86.4042 25.284 85.7892C25.284 85.1742 25.3765 84.6217 25.5615 84.1317C25.7515 83.6417 26.0165 83.2267 26.3565 82.8867C26.6965 82.5417 27.104 82.2767 27.579 82.0917C28.059 81.9067 28.5915 81.8142 29.1765 81.8142ZM29.1765 88.2267C29.7665 88.2267 30.204 88.0242 30.489 87.6192C30.774 87.2092 30.9165 86.6017 30.9165 85.7967C30.9165 84.9967 30.774 84.3942 30.489 83.9892C30.204 83.5792 29.7665 83.3742 29.1765 83.3742C28.5715 83.3742 28.1265 83.5792 27.8415 83.9892C27.5565 84.3942 27.414 84.9967 27.414 85.7967C27.414 86.6017 27.5565 87.2092 27.8415 87.6192C28.1265 88.0242 28.5715 88.2267 29.1765 88.2267ZM36.8697 89.7867C36.5197 89.7867 36.2097 89.7367 35.9397 89.6367C35.6697 89.5317 35.4422 89.3842 35.2572 89.1942C35.0722 89.0042 34.9322 88.7742 34.8372 88.5042C34.7422 88.2342 34.6947 87.9292 34.6947 87.5892V83.4192H33.9672C33.8572 83.4192 33.7622 83.3842 33.6822 83.3142C33.6072 83.2442 33.5697 83.1392 33.5697 82.9992V82.1892L34.8072 81.9642L35.2272 79.9617C35.2822 79.7367 35.4347 79.6242 35.6847 79.6242H36.7647V81.9792H38.7597V83.4192H36.7647V87.4542C36.7647 87.6692 36.8147 87.8392 36.9147 87.9642C37.0197 88.0892 37.1672 88.1517 37.3572 88.1517C37.4572 88.1517 37.5422 88.1417 37.6122 88.1217C37.6822 88.0967 37.7422 88.0717 37.7922 88.0467C37.8422 88.0167 37.8872 87.9917 37.9272 87.9717C37.9722 87.9467 38.0172 87.9342 38.0622 87.9342C38.1222 87.9342 38.1722 87.9492 38.2122 87.9792C38.2522 88.0042 38.2922 88.0492 38.3322 88.1142L38.9547 89.1042C38.6697 89.3292 38.3472 89.4992 37.9872 89.6142C37.6272 89.7292 37.2547 89.7867 36.8697 89.7867ZM41.8112 83.2092C42.0562 82.7692 42.3387 82.4217 42.6587 82.1667C42.9787 81.9117 43.3537 81.7842 43.7837 81.7842C44.1337 81.7842 44.4187 81.8667 44.6387 82.0317L44.5037 83.5617C44.4787 83.6617 44.4387 83.7317 44.3837 83.7717C44.3337 83.8067 44.2637 83.8242 44.1737 83.8242C44.0937 83.8242 43.9787 83.8142 43.8287 83.7942C43.6787 83.7692 43.5387 83.7567 43.4087 83.7567C43.2187 83.7567 43.0487 83.7842 42.8987 83.8392C42.7537 83.8942 42.6237 83.9717 42.5087 84.0717C42.3937 84.1717 42.2887 84.2942 42.1937 84.4392C42.1037 84.5842 42.0187 84.7492 41.9387 84.9342V89.6667H39.8687V81.9342H41.0912C41.3012 81.9342 41.4462 81.9717 41.5262 82.0467C41.6062 82.1217 41.6637 82.2517 41.6987 82.4367L41.8112 83.2092ZM50.2522 84.8892C50.2522 84.6742 50.2222 84.4692 50.1622 84.2742C50.1072 84.0792 50.0172 83.9067 49.8922 83.7567C49.7672 83.6067 49.6097 83.4892 49.4197 83.4042C49.2297 83.3142 49.0022 83.2692 48.7372 83.2692C48.2422 83.2692 47.8547 83.4092 47.5747 83.6892C47.2947 83.9692 47.1122 84.3692 47.0272 84.8892H50.2522ZM46.9972 86.1192C47.0622 86.8442 47.2672 87.3742 47.6122 87.7092C47.9622 88.0442 48.4172 88.2117 48.9772 88.2117C49.2622 88.2117 49.5072 88.1792 49.7122 88.1142C49.9222 88.0442 50.1047 87.9692 50.2597 87.8892C50.4197 87.8042 50.5622 87.7292 50.6872 87.6642C50.8172 87.5942 50.9447 87.5592 51.0697 87.5592C51.2297 87.5592 51.3547 87.6192 51.4447 87.7392L52.0447 88.4892C51.8247 88.7442 51.5822 88.9567 51.3172 89.1267C51.0522 89.2917 50.7772 89.4242 50.4922 89.5242C50.2072 89.6192 49.9197 89.6842 49.6297 89.7192C49.3397 89.7592 49.0597 89.7792 48.7897 89.7792C48.2497 89.7792 47.7447 89.6917 47.2747 89.5167C46.8097 89.3367 46.4022 89.0742 46.0522 88.7292C45.7072 88.3792 45.4347 87.9467 45.2347 87.4317C45.0347 86.9167 44.9347 86.3192 44.9347 85.6392C44.9347 85.1142 45.0197 84.6192 45.1897 84.1542C45.3647 83.6892 45.6147 83.2842 45.9397 82.9392C46.2647 82.5942 46.6597 82.3217 47.1247 82.1217C47.5897 81.9167 48.1147 81.8142 48.6997 81.8142C49.1947 81.8142 49.6497 81.8942 50.0647 82.0542C50.4847 82.2092 50.8447 82.4367 51.1447 82.7367C51.4497 83.0367 51.6847 83.4067 51.8497 83.8467C52.0197 84.2817 52.1047 84.7792 52.1047 85.3392C52.1047 85.4942 52.0972 85.6217 52.0822 85.7217C52.0672 85.8217 52.0422 85.9017 52.0072 85.9617C51.9722 86.0217 51.9247 86.0642 51.8647 86.0892C51.8047 86.1092 51.7272 86.1192 51.6322 86.1192H46.9972ZM55.4592 78.4842V84.8292H55.8042C55.9342 84.8292 56.0367 84.8117 56.1117 84.7767C56.1867 84.7367 56.2617 84.6667 56.3367 84.5667L58.0467 82.2867C58.1317 82.1717 58.2267 82.0842 58.3317 82.0242C58.4417 81.9642 58.5792 81.9342 58.7442 81.9342H60.6342L58.4142 84.7542C58.2392 84.9892 58.0367 85.1742 57.8067 85.3092C57.9217 85.3892 58.0217 85.4817 58.1067 85.5867C58.1917 85.6917 58.2742 85.8092 58.3542 85.9392L60.7467 89.6667H58.8867C58.7267 89.6667 58.5892 89.6417 58.4742 89.5917C58.3592 89.5367 58.2642 89.4417 58.1892 89.3067L56.4492 86.4642C56.3792 86.3442 56.3067 86.2667 56.2317 86.2317C56.1567 86.1967 56.0442 86.1792 55.8942 86.1792H55.4592V89.6667H53.3892V78.4842H55.4592ZM69.8772 87.8667C70.2422 87.8667 70.5697 87.8067 70.8597 87.6867C71.1497 87.5617 71.3947 87.3867 71.5947 87.1617C71.7947 86.9367 71.9472 86.6642 72.0522 86.3442C72.1572 86.0242 72.2097 85.6642 72.2097 85.2642V78.7842H74.4597V85.2642C74.4597 85.9242 74.3522 86.5317 74.1372 87.0867C73.9272 87.6367 73.6247 88.1117 73.2297 88.5117C72.8347 88.9117 72.3547 89.2242 71.7897 89.4492C71.2247 89.6742 70.5872 89.7867 69.8772 89.7867C69.1672 89.7867 68.5272 89.6742 67.9572 89.4492C67.3922 89.2242 66.9122 88.9117 66.5172 88.5117C66.1222 88.1117 65.8172 87.6367 65.6022 87.0867C65.3922 86.5317 65.2872 85.9242 65.2872 85.2642V78.7842H67.5372V85.2642C67.5372 85.6642 67.5897 86.0242 67.6947 86.3442C67.7997 86.6642 67.9522 86.9367 68.1522 87.1617C68.3522 87.3867 68.5972 87.5617 68.8872 87.6867C69.1772 87.8067 69.5072 87.8667 69.8772 87.8667ZM78.864 89.6667H76.599V78.7842H78.864V89.6667Z" fill="white"/>
</svg>
