<svg width="200" height="150" viewBox="0 0 200 150" fill="none" xmlns="http://www.w3.org/2000/svg">
<rect width="200" height="150" fill="white"/>
<path d="M41.6055 84.6094H24.9258L21.1797 95H15.7656L30.9688 55.1875H35.5625L50.793 95H45.4062L41.6055 84.6094ZM26.5117 80.2891H40.0469L33.2656 61.668L26.5117 80.2891Z" fill="black"/>
<path d="M74.2188 83.6348C74.2188 87.1868 73.4023 90.0443 71.7695 92.207C70.1367 94.3555 67.9453 95.4297 65.1953 95.4297C62.2591 95.4297 59.9889 94.3913 58.3848 92.3145L58.1914 95H54.5391V62H58.5137V74.3105C60.1178 72.3197 62.3307 71.3242 65.1523 71.3242C67.974 71.3242 70.1868 72.3913 71.791 74.5254C73.4095 76.6595 74.2188 79.5814 74.2188 83.291V83.6348ZM70.2441 83.1836C70.2441 80.4766 69.7214 78.3854 68.6758 76.9102C67.6302 75.4349 66.1263 74.6973 64.1641 74.6973C61.543 74.6973 59.6595 75.9147 58.5137 78.3496V88.4043C59.7311 90.8392 61.6289 92.0566 64.207 92.0566C66.112 92.0566 67.5944 91.319 68.6543 89.8438C69.7142 88.3685 70.2441 86.1484 70.2441 83.1836Z" fill="#0F7EE6"/>
<g filter="url(#filter0_d_85_1476)">
<path d="M106 48H181V103H106V48Z" fill="url(#paint0_linear_85_1476)"/>
</g>
<defs>
<filter id="filter0_d_85_1476" x="104" y="46" width="83" height="63" filterUnits="userSpaceOnUse" color-interpolation-filters="sRGB">
<feFlood flood-opacity="0" result="BackgroundImageFix"/>
<feColorMatrix in="SourceAlpha" type="matrix" values="0 0 0 0 0 0 0 0 0 0 0 0 0 0 0 0 0 0 127 0" result="hardAlpha"/>
<feOffset dx="2" dy="2"/>
<feGaussianBlur stdDeviation="2"/>
<feComposite in2="hardAlpha" operator="out"/>
<feColorMatrix type="matrix" values="0 0 0 0 0 0 0 0 0 0 0 0 0 0 0 0 0 0 0.1 0"/>
<feBlend mode="normal" in2="BackgroundImageFix" result="effect1_dropShadow_85_1476"/>
<feBlend mode="normal" in="SourceGraphic" in2="effect1_dropShadow_85_1476" result="shape"/>
</filter>
<linearGradient id="paint0_linear_85_1476" x1="143.5" y1="48" x2="143.5" y2="103" gradientUnits="userSpaceOnUse">
<stop stop-color="#57A5ED"/>
<stop offset="1" stop-color="#0F7EE6"/>
</linearGradient>
</defs>
</svg>
