<svg width="200" height="150" viewBox="0 0 200 150" fill="none" xmlns="http://www.w3.org/2000/svg">
<rect width="200" height="150" fill="white"/>
<g filter="url(#filter0_d_85_1792)">
<rect x="44" y="53" width="45" height="45" fill="url(#paint0_linear_85_1792)"/>
</g>
<g filter="url(#filter1_d_85_1792)">
<rect x="111" y="53" width="45" height="45" fill="url(#paint1_linear_85_1792)"/>
</g>
<path d="M65.1035 80.3203H54.3809L51.9727 87H48.4922L58.2656 61.4062H61.2188L71.0098 87H67.5469L65.1035 80.3203ZM55.4004 77.543H64.1016L59.7422 65.5723L55.4004 77.543Z" fill="black"/>
<path d="M83.8594 80.8008C83.8594 82.7383 83.4141 84.2969 82.5234 85.4766C81.6328 86.6484 80.4375 87.2344 78.9375 87.2344C77.3359 87.2344 76.0977 86.668 75.2227 85.5352L75.1172 87H73.125V69H75.293V75.7148C76.168 74.6289 77.375 74.0859 78.9141 74.0859C80.4531 74.0859 81.6602 74.668 82.5352 75.832C83.418 76.9961 83.8594 78.5898 83.8594 80.6133V80.8008ZM81.6914 80.5547C81.6914 79.0781 81.4062 77.9375 80.8359 77.1328C80.2656 76.3281 79.4453 75.9258 78.375 75.9258C76.9453 75.9258 75.918 76.5898 75.293 77.918V83.4023C75.957 84.7305 76.9922 85.3945 78.3984 85.3945C79.4375 85.3945 80.2461 84.9922 80.8242 84.1875C81.4023 83.3828 81.6914 82.1719 81.6914 80.5547Z" fill="white"/>
<path d="M132.104 80.3203H121.381L118.973 87H115.492L125.266 61.4062H128.219L138.01 87H134.547L132.104 80.3203ZM122.4 77.543H131.102L126.742 65.5723L122.4 77.543Z" fill="black"/>
<path d="M150.859 80.8008C150.859 82.7383 150.414 84.2969 149.523 85.4766C148.633 86.6484 147.438 87.2344 145.938 87.2344C144.336 87.2344 143.098 86.668 142.223 85.5352L142.117 87H140.125V69H142.293V75.7148C143.168 74.6289 144.375 74.0859 145.914 74.0859C147.453 74.0859 148.66 74.668 149.535 75.832C150.418 76.9961 150.859 78.5898 150.859 80.6133V80.8008ZM148.691 80.5547C148.691 79.0781 148.406 77.9375 147.836 77.1328C147.266 76.3281 146.445 75.9258 145.375 75.9258C143.945 75.9258 142.918 76.5898 142.293 77.918V83.4023C142.957 84.7305 143.992 85.3945 145.398 85.3945C146.438 85.3945 147.246 84.9922 147.824 84.1875C148.402 83.3828 148.691 82.1719 148.691 80.5547Z" fill="white"/>
<path d="M10 75L25 83.6603V66.3397L10 75Z" fill="#0F7EE6"/>
<path d="M190 75L175 66.3397V83.6603L190 75Z" fill="#0F7EE6"/>
<defs>
<filter id="filter0_d_85_1792" x="44" y="53" width="49" height="49" filterUnits="userSpaceOnUse" color-interpolation-filters="sRGB">
<feFlood flood-opacity="0" result="BackgroundImageFix"/>
<feColorMatrix in="SourceAlpha" type="matrix" values="0 0 0 0 0 0 0 0 0 0 0 0 0 0 0 0 0 0 127 0" result="hardAlpha"/>
<feOffset dx="2" dy="2"/>
<feGaussianBlur stdDeviation="1"/>
<feComposite in2="hardAlpha" operator="out"/>
<feColorMatrix type="matrix" values="0 0 0 0 0 0 0 0 0 0 0 0 0 0 0 0 0 0 0.1 0"/>
<feBlend mode="normal" in2="BackgroundImageFix" result="effect1_dropShadow_85_1792"/>
<feBlend mode="normal" in="SourceGraphic" in2="effect1_dropShadow_85_1792" result="shape"/>
</filter>
<filter id="filter1_d_85_1792" x="111" y="53" width="49" height="49" filterUnits="userSpaceOnUse" color-interpolation-filters="sRGB">
<feFlood flood-opacity="0" result="BackgroundImageFix"/>
<feColorMatrix in="SourceAlpha" type="matrix" values="0 0 0 0 0 0 0 0 0 0 0 0 0 0 0 0 0 0 127 0" result="hardAlpha"/>
<feOffset dx="2" dy="2"/>
<feGaussianBlur stdDeviation="1"/>
<feComposite in2="hardAlpha" operator="out"/>
<feColorMatrix type="matrix" values="0 0 0 0 0 0 0 0 0 0 0 0 0 0 0 0 0 0 0.1 0"/>
<feBlend mode="normal" in2="BackgroundImageFix" result="effect1_dropShadow_85_1792"/>
<feBlend mode="normal" in="SourceGraphic" in2="effect1_dropShadow_85_1792" result="shape"/>
</filter>
<linearGradient id="paint0_linear_85_1792" x1="66.5" y1="53" x2="66.5" y2="98" gradientUnits="userSpaceOnUse">
<stop stop-color="#57A5ED"/>
<stop offset="1" stop-color="#0F7EE6"/>
</linearGradient>
<linearGradient id="paint1_linear_85_1792" x1="133.5" y1="53" x2="133.5" y2="98" gradientUnits="userSpaceOnUse">
<stop stop-color="#57A5ED"/>
<stop offset="1" stop-color="#0F7EE6"/>
</linearGradient>
</defs>
</svg>
