<svg width="100" height="100" viewBox="0 0 100 100" fill="none" xmlns="http://www.w3.org/2000/svg">
<rect width="100" height="100" fill="#0F7EE6"/>
<path d="M25.8445 16.8144L73.3706 9.50272C73.9271 9.41711 74.4065 9.89659 74.3209 10.4531L67.0092 57.9792C66.9539 58.3387 66.6718 58.6208 66.3123 58.6761L18.7862 65.9878C18.2297 66.0734 17.7502 65.5939 17.8359 65.0374L25.1476 17.5114C25.2029 17.1518 25.485 16.8697 25.8445 16.8144Z" stroke="#F5F5F5" stroke-width="1.66667"/>
<path d="M65.4922 19.3996C65.6068 18.6549 66.2067 18.0797 66.9555 17.9965L81.1713 16.417C82.2615 16.2959 83.1695 17.2427 83.0027 18.3269L75.6845 65.8951C75.5699 66.6398 74.97 67.215 74.2212 67.2982L60.0054 68.8777C58.9152 68.9988 58.0073 68.052 58.1741 66.9678L65.4922 19.3996Z" fill="#F5F5F5"/>
<path d="M28.507 49.018C28.6177 48.2989 29.1819 47.7347 29.9009 47.6241L53.6361 43.9725C54.7491 43.8013 55.7081 44.7603 55.5369 45.8733L51.8853 69.6085C51.7747 70.3275 51.2105 70.8917 50.4914 71.0023L26.7562 74.6539C25.6432 74.8251 24.6842 73.8662 24.8555 72.7532L28.507 49.018Z" fill="#F5F5F5"/>
<path d="M42.6247 22.8419C42.7353 22.1229 43.2995 21.5587 44.0186 21.4481L57.5577 19.3651C58.6707 19.1939 59.6297 20.1528 59.4584 21.2658L57.3755 34.805C57.2649 35.524 56.7007 36.0882 55.9816 36.1988L42.4425 38.2818C41.3295 38.453 40.3705 37.4941 40.5418 36.3811L42.6247 22.8419Z" fill="#F5F5F5"/>
<path d="M24.9168 86.17V88H18.4593V77.1175H20.7093V86.17H24.9168ZM29.1764 80.1475C29.7564 80.1475 30.2839 80.24 30.7589 80.425C31.2339 80.61 31.6414 80.875 31.9814 81.22C32.3214 81.56 32.5839 81.975 32.7689 82.465C32.9539 82.955 33.0464 83.5075 33.0464 84.1225C33.0464 84.7375 32.9539 85.2925 32.7689 85.7875C32.5839 86.2775 32.3214 86.695 31.9814 87.04C31.6414 87.385 31.2339 87.65 30.7589 87.835C30.2839 88.02 29.7564 88.1125 29.1764 88.1125C28.5914 88.1125 28.0589 88.02 27.5789 87.835C27.1039 87.65 26.6964 87.385 26.3564 87.04C26.0164 86.695 25.7514 86.2775 25.5614 85.7875C25.3764 85.2925 25.2839 84.7375 25.2839 84.1225C25.2839 83.5075 25.3764 82.955 25.5614 82.465C25.7514 81.975 26.0164 81.56 26.3564 81.22C26.6964 80.875 27.1039 80.61 27.5789 80.425C28.0589 80.24 28.5914 80.1475 29.1764 80.1475ZM29.1764 86.56C29.7664 86.56 30.2039 86.3575 30.4889 85.9525C30.7739 85.5425 30.9164 84.935 30.9164 84.13C30.9164 83.33 30.7739 82.7275 30.4889 82.3225C30.2039 81.9125 29.7664 81.7075 29.1764 81.7075C28.5714 81.7075 28.1264 81.9125 27.8414 82.3225C27.5564 82.7275 27.4139 83.33 27.4139 84.13C27.4139 84.935 27.5564 85.5425 27.8414 85.9525C28.1264 86.3575 28.5714 86.56 29.1764 86.56ZM36.8697 88.12C36.5197 88.12 36.2097 88.07 35.9397 87.97C35.6697 87.865 35.4422 87.7175 35.2572 87.5275C35.0722 87.3375 34.9322 87.1075 34.8372 86.8375C34.7422 86.5675 34.6947 86.2625 34.6947 85.9225V81.7525H33.9672C33.8572 81.7525 33.7622 81.7175 33.6822 81.6475C33.6072 81.5775 33.5697 81.4725 33.5697 81.3325V80.5225L34.8072 80.2975L35.2272 78.295C35.2822 78.07 35.4347 77.9575 35.6847 77.9575H36.7647V80.3125H38.7597V81.7525H36.7647V85.7875C36.7647 86.0025 36.8147 86.1725 36.9147 86.2975C37.0197 86.4225 37.1672 86.485 37.3572 86.485C37.4572 86.485 37.5422 86.475 37.6122 86.455C37.6822 86.43 37.7422 86.405 37.7922 86.38C37.8422 86.35 37.8872 86.325 37.9272 86.305C37.9722 86.28 38.0172 86.2675 38.0622 86.2675C38.1222 86.2675 38.1722 86.2825 38.2122 86.3125C38.2522 86.3375 38.2922 86.3825 38.3322 86.4475L38.9547 87.4375C38.6697 87.6625 38.3472 87.8325 37.9872 87.9475C37.6272 88.0625 37.2547 88.12 36.8697 88.12ZM41.8111 81.5425C42.0561 81.1025 42.3386 80.755 42.6586 80.5C42.9786 80.245 43.3536 80.1175 43.7836 80.1175C44.1336 80.1175 44.4186 80.2 44.6386 80.365L44.5036 81.895C44.4786 81.995 44.4386 82.065 44.3836 82.105C44.3336 82.14 44.2636 82.1575 44.1736 82.1575C44.0936 82.1575 43.9786 82.1475 43.8286 82.1275C43.6786 82.1025 43.5386 82.09 43.4086 82.09C43.2186 82.09 43.0486 82.1175 42.8986 82.1725C42.7536 82.2275 42.6236 82.305 42.5086 82.405C42.3936 82.505 42.2886 82.6275 42.1936 82.7725C42.1036 82.9175 42.0186 83.0825 41.9386 83.2675V88H39.8686V80.2675H41.0911C41.3011 80.2675 41.4461 80.305 41.5261 80.38C41.6061 80.455 41.6636 80.585 41.6986 80.77L41.8111 81.5425ZM50.2521 83.2225C50.2521 83.0075 50.2221 82.8025 50.1621 82.6075C50.1071 82.4125 50.0171 82.24 49.8921 82.09C49.7671 81.94 49.6096 81.8225 49.4196 81.7375C49.2296 81.6475 49.0021 81.6025 48.7371 81.6025C48.2421 81.6025 47.8546 81.7425 47.5746 82.0225C47.2946 82.3025 47.1121 82.7025 47.0271 83.2225H50.2521ZM46.9971 84.4525C47.0621 85.1775 47.2671 85.7075 47.6121 86.0425C47.9621 86.3775 48.4171 86.545 48.9771 86.545C49.2621 86.545 49.5071 86.5125 49.7121 86.4475C49.9221 86.3775 50.1046 86.3025 50.2596 86.2225C50.4196 86.1375 50.5621 86.0625 50.6871 85.9975C50.8171 85.9275 50.9446 85.8925 51.0696 85.8925C51.2296 85.8925 51.3546 85.9525 51.4446 86.0725L52.0447 86.8225C51.8246 87.0775 51.5821 87.29 51.3171 87.46C51.0521 87.625 50.7771 87.7575 50.4921 87.8575C50.2071 87.9525 49.9196 88.0175 49.6296 88.0525C49.3396 88.0925 49.0596 88.1125 48.7896 88.1125C48.2496 88.1125 47.7446 88.025 47.2746 87.85C46.8096 87.67 46.4021 87.4075 46.0521 87.0625C45.7071 86.7125 45.4346 86.28 45.2346 85.765C45.0346 85.25 44.9346 84.6525 44.9346 83.9725C44.9346 83.4475 45.0196 82.9525 45.1896 82.4875C45.3646 82.0225 45.6146 81.6175 45.9396 81.2725C46.2646 80.9275 46.6596 80.655 47.1246 80.455C47.5896 80.25 48.1146 80.1475 48.6996 80.1475C49.1946 80.1475 49.6496 80.2275 50.0646 80.3875C50.4846 80.5425 50.8446 80.77 51.1446 81.07C51.4496 81.37 51.6846 81.74 51.8496 82.18C52.0197 82.615 52.1047 83.1125 52.1047 83.6725C52.1047 83.8275 52.0972 83.955 52.0821 84.055C52.0671 84.155 52.0421 84.235 52.0072 84.295C51.9721 84.355 51.9246 84.3975 51.8646 84.4225C51.8046 84.4425 51.7271 84.4525 51.6321 84.4525H46.9971ZM55.4591 76.8175V83.1625H55.8041C55.9341 83.1625 56.0366 83.145 56.1116 83.11C56.1866 83.07 56.2616 83 56.3366 82.9L58.0466 80.62C58.1316 80.505 58.2266 80.4175 58.3316 80.3575C58.4416 80.2975 58.5791 80.2675 58.7441 80.2675H60.6341L58.4141 83.0875C58.2391 83.3225 58.0366 83.5075 57.8066 83.6425C57.9216 83.7225 58.0216 83.815 58.1066 83.92C58.1916 84.025 58.2741 84.1425 58.3541 84.2725L60.7466 88H58.8866C58.7266 88 58.5891 87.975 58.4741 87.925C58.3591 87.87 58.2641 87.775 58.1891 87.64L56.4491 84.7975C56.3791 84.6775 56.3066 84.6 56.2316 84.565C56.1566 84.53 56.0441 84.5125 55.8941 84.5125H55.4591V88H53.3891V76.8175H55.4591ZM69.8772 86.2C70.2422 86.2 70.5697 86.14 70.8597 86.02C71.1497 85.895 71.3947 85.72 71.5947 85.495C71.7947 85.27 71.9472 84.9975 72.0522 84.6775C72.1572 84.3575 72.2097 83.9975 72.2097 83.5975V77.1175H74.4597V83.5975C74.4597 84.2575 74.3522 84.865 74.1372 85.42C73.9272 85.97 73.6247 86.445 73.2297 86.845C72.8347 87.245 72.3547 87.5575 71.7897 87.7825C71.2247 88.0075 70.5872 88.12 69.8772 88.12C69.1672 88.12 68.5272 88.0075 67.9572 87.7825C67.3922 87.5575 66.9122 87.245 66.5172 86.845C66.1222 86.445 65.8172 85.97 65.6022 85.42C65.3922 84.865 65.2872 84.2575 65.2872 83.5975V77.1175H67.5372V83.5975C67.5372 83.9975 67.5897 84.3575 67.6947 84.6775C67.7997 84.9975 67.9522 85.27 68.1522 85.495C68.3522 85.72 68.5972 85.895 68.8872 86.02C69.1772 86.14 69.5072 86.2 69.8772 86.2ZM78.8639 88H76.5989V77.1175H78.8639V88Z" fill="white"/>
</svg>
