<svg width="60" height="60" viewBox="0 0 60 60" fill="none" xmlns="http://www.w3.org/2000/svg">
<rect width="60" height="60" fill="#0F7EE6"/>
<path d="M15.5067 9.08856L44.0224 4.70154C44.3563 4.65017 44.6439 4.93785 44.5926 5.27175L40.2056 33.7874C40.1724 34.0031 40.0031 34.1724 39.7874 34.2056L11.2718 38.5926C10.9379 38.6439 10.6502 38.3563 10.7015 38.0224L15.0886 9.50672C15.1217 9.29101 15.291 9.12175 15.5067 9.08856Z" stroke="#F5F5F5"/>
<path d="M39.2953 10.6397C39.3641 10.193 39.724 9.84784 40.1733 9.79792L48.7028 8.8502C49.3569 8.77752 49.9017 9.34564 49.8016 9.99614L45.4107 38.5371C45.3419 38.9839 44.982 39.329 44.5327 39.3789L36.0032 40.3266C35.3491 40.3993 34.8043 39.8312 34.9044 39.1807L39.2953 10.6397Z" fill="#F5F5F5"/>
<path d="M17.1042 28.4109C17.1706 27.9795 17.5091 27.6409 17.9405 27.5746L32.1817 25.3836C32.8495 25.2809 33.4248 25.8563 33.3221 26.524L31.1312 40.7652C31.0648 41.1966 30.7263 41.5351 30.2949 41.6015L16.0537 43.7924C15.3859 43.8952 14.8105 43.3198 14.9133 42.652L17.1042 28.4109Z" fill="#F5F5F5"/>
<path d="M25.5748 15.7051C25.6412 15.2736 25.9797 14.9351 26.4111 14.8687L34.5346 13.619C35.2024 13.5162 35.7778 14.0916 35.675 14.7594L34.4253 22.8829C34.3589 23.3143 34.0204 23.6528 33.5889 23.7192L25.4655 24.969C24.7977 25.0717 24.2223 24.4963 24.325 23.8285L25.5748 15.7051Z" fill="#F5F5F5"/>
<path d="M14.9501 52.902V54H11.0756V47.4705H12.4256V52.902H14.9501ZM17.5059 49.2885C17.8539 49.2885 18.1704 49.344 18.4554 49.455C18.7404 49.566 18.9849 49.725 19.1889 49.932C19.3929 50.136 19.5504 50.385 19.6614 50.679C19.7724 50.973 19.8279 51.3045 19.8279 51.6735C19.8279 52.0425 19.7724 52.3755 19.6614 52.6725C19.5504 52.9665 19.3929 53.217 19.1889 53.424C18.9849 53.631 18.7404 53.79 18.4554 53.901C18.1704 54.012 17.8539 54.0675 17.5059 54.0675C17.1549 54.0675 16.8354 54.012 16.5474 53.901C16.2624 53.79 16.0179 53.631 15.8139 53.424C15.6099 53.217 15.4509 52.9665 15.3369 52.6725C15.2259 52.3755 15.1704 52.0425 15.1704 51.6735C15.1704 51.3045 15.2259 50.973 15.3369 50.679C15.4509 50.385 15.6099 50.136 15.8139 49.932C16.0179 49.725 16.2624 49.566 16.5474 49.455C16.8354 49.344 17.1549 49.2885 17.5059 49.2885ZM17.5059 53.136C17.8599 53.136 18.1224 53.0145 18.2934 52.7715C18.4644 52.5255 18.5499 52.161 18.5499 51.678C18.5499 51.198 18.4644 50.8365 18.2934 50.5935C18.1224 50.3475 17.8599 50.2245 17.5059 50.2245C17.1429 50.2245 16.8759 50.3475 16.7049 50.5935C16.5339 50.8365 16.4484 51.198 16.4484 51.678C16.4484 52.161 16.5339 52.5255 16.7049 52.7715C16.8759 53.0145 17.1429 53.136 17.5059 53.136ZM22.1218 54.072C21.9118 54.072 21.7258 54.042 21.5638 53.982C21.4018 53.919 21.2653 53.8305 21.1543 53.7165C21.0433 53.6025 20.9593 53.4645 20.9023 53.3025C20.8453 53.1405 20.8168 52.9575 20.8168 52.7535V50.2515H20.3803C20.3143 50.2515 20.2573 50.2305 20.2093 50.1885C20.1643 50.1465 20.1418 50.0835 20.1418 49.9995V49.5135L20.8843 49.3785L21.1363 48.177C21.1693 48.042 21.2608 47.9745 21.4108 47.9745H22.0588V49.3875H23.2558V50.2515H22.0588V52.6725C22.0588 52.8015 22.0888 52.9035 22.1488 52.9785C22.2118 53.0535 22.3003 53.091 22.4143 53.091C22.4743 53.091 22.5253 53.085 22.5673 53.073C22.6093 53.058 22.6453 53.043 22.6753 53.028C22.7053 53.01 22.7323 52.995 22.7563 52.983C22.7833 52.968 22.8103 52.9605 22.8373 52.9605C22.8733 52.9605 22.9033 52.9695 22.9273 52.9875C22.9513 53.0025 22.9753 53.0295 22.9993 53.0685L23.3728 53.6625C23.2018 53.7975 23.0083 53.8995 22.7923 53.9685C22.5763 54.0375 22.3528 54.072 22.1218 54.072ZM25.0867 50.1255C25.2337 49.8615 25.4032 49.653 25.5952 49.5C25.7872 49.347 26.0122 49.2705 26.2702 49.2705C26.4802 49.2705 26.6512 49.32 26.7832 49.419L26.7022 50.337C26.6872 50.397 26.6632 50.439 26.6302 50.463C26.6002 50.484 26.5582 50.4945 26.5042 50.4945C26.4562 50.4945 26.3872 50.4885 26.2972 50.4765C26.2072 50.4615 26.1232 50.454 26.0452 50.454C25.9312 50.454 25.8292 50.4705 25.7392 50.5035C25.6522 50.5365 25.5742 50.583 25.5052 50.643C25.4362 50.703 25.3732 50.7765 25.3162 50.8635C25.2622 50.9505 25.2112 51.0495 25.1632 51.1605V54H23.9212V49.3605H24.6547C24.7807 49.3605 24.8677 49.383 24.9157 49.428C24.9637 49.473 24.9982 49.551 25.0192 49.662L25.0867 50.1255ZM30.1513 51.1335C30.1513 51.0045 30.1333 50.8815 30.0973 50.7645C30.0643 50.6475 30.0103 50.544 29.9353 50.454C29.8603 50.364 29.7658 50.2935 29.6518 50.2425C29.5378 50.1885 29.4013 50.1615 29.2423 50.1615C28.9453 50.1615 28.7128 50.2455 28.5448 50.4135C28.3768 50.5815 28.2673 50.8215 28.2163 51.1335H30.1513ZM28.1983 51.8715C28.2373 52.3065 28.3603 52.6245 28.5673 52.8255C28.7773 53.0265 29.0503 53.127 29.3863 53.127C29.5573 53.127 29.7043 53.1075 29.8273 53.0685C29.9533 53.0265 30.0628 52.9815 30.1558 52.9335C30.2518 52.8825 30.3373 52.8375 30.4123 52.7985C30.4903 52.7565 30.5668 52.7355 30.6418 52.7355C30.7378 52.7355 30.8128 52.7715 30.8668 52.8435L31.2268 53.2935C31.0948 53.4465 30.9493 53.574 30.7903 53.676C30.6313 53.775 30.4663 53.8545 30.2953 53.9145C30.1243 53.9715 29.9518 54.0105 29.7778 54.0315C29.6038 54.0555 29.4358 54.0675 29.2738 54.0675C28.9498 54.0675 28.6468 54.015 28.3648 53.91C28.0858 53.802 27.8413 53.6445 27.6313 53.4375C27.4243 53.2275 27.2608 52.968 27.1408 52.659C27.0208 52.35 26.9608 51.9915 26.9608 51.5835C26.9608 51.2685 27.0118 50.9715 27.1138 50.6925C27.2188 50.4135 27.3688 50.1705 27.5638 49.9635C27.7588 49.7565 27.9958 49.593 28.2748 49.473C28.5538 49.35 28.8688 49.2885 29.2198 49.2885C29.5168 49.2885 29.7898 49.3365 30.0388 49.4325C30.2908 49.5255 30.5068 49.662 30.6868 49.842C30.8698 50.022 31.0108 50.244 31.1098 50.508C31.2118 50.769 31.2628 51.0675 31.2628 51.4035C31.2628 51.4965 31.2583 51.573 31.2493 51.633C31.2403 51.693 31.2253 51.741 31.2043 51.777C31.1833 51.813 31.1548 51.8385 31.1188 51.8535C31.0828 51.8655 31.0363 51.8715 30.9793 51.8715H28.1983ZM33.2755 47.2905V51.0975H33.4825C33.5605 51.0975 33.622 51.087 33.667 51.066C33.712 51.042 33.757 51 33.802 50.94L34.828 49.572C34.879 49.503 34.936 49.4505 34.999 49.4145C35.065 49.3785 35.1475 49.3605 35.2465 49.3605H36.3805L35.0485 51.0525C34.9435 51.1935 34.822 51.3045 34.684 51.3855C34.753 51.4335 34.813 51.489 34.864 51.552C34.915 51.615 34.9645 51.6855 35.0125 51.7635L36.448 54H35.332C35.236 54 35.1535 53.985 35.0845 53.955C35.0155 53.922 34.9585 53.865 34.9135 53.784L33.8695 52.0785C33.8275 52.0065 33.784 51.96 33.739 51.939C33.694 51.918 33.6265 51.9075 33.5365 51.9075H33.2755V54H32.0335V47.2905H33.2755ZM41.9263 52.92C42.1453 52.92 42.3418 52.884 42.5158 52.812C42.6898 52.737 42.8368 52.632 42.9568 52.497C43.0768 52.362 43.1683 52.1985 43.2313 52.0065C43.2943 51.8145 43.3258 51.5985 43.3258 51.3585V47.4705H44.6758V51.3585C44.6758 51.7545 44.6113 52.119 44.4823 52.452C44.3563 52.782 44.1748 53.067 43.9378 53.307C43.7008 53.547 43.4128 53.7345 43.0738 53.8695C42.7348 54.0045 42.3523 54.072 41.9263 54.072C41.5003 54.072 41.1163 54.0045 40.7743 53.8695C40.4353 53.7345 40.1473 53.547 39.9103 53.307C39.6733 53.067 39.4903 52.782 39.3613 52.452C39.2353 52.119 39.1723 51.7545 39.1723 51.3585V47.4705H40.5223V51.3585C40.5223 51.5985 40.5538 51.8145 40.6168 52.0065C40.6798 52.1985 40.7713 52.362 40.8913 52.497C41.0113 52.632 41.1583 52.737 41.3323 52.812C41.5063 52.884 41.7043 52.92 41.9263 52.92ZM47.3184 54H45.9594V47.4705H47.3184V54Z" fill="white"/>
</svg>
