<svg width="200" height="150" viewBox="0 0 200 150" fill="none" xmlns="http://www.w3.org/2000/svg">
<rect x="-0.000976562" width="200" height="150" fill="white"/>
<path d="M95.6045 125.609H78.9248L75.1787 136H69.7646L84.9678 96.1875H89.5615L104.792 136H99.4053L95.6045 125.609ZM80.5107 121.289H94.0459L87.2646 102.668L80.5107 121.289Z" fill="black"/>
<path d="M128.218 124.635C128.218 128.187 127.401 131.044 125.769 133.207C124.136 135.355 121.944 136.43 119.194 136.43C116.258 136.43 113.988 135.391 112.384 133.314L112.19 136H108.538V103H112.513V115.311C114.117 113.32 116.33 112.324 119.151 112.324C121.973 112.324 124.186 113.391 125.79 115.525C127.409 117.66 128.218 120.581 128.218 124.291V124.635ZM124.243 124.184C124.243 121.477 123.72 119.385 122.675 117.91C121.629 116.435 120.125 115.697 118.163 115.697C115.542 115.697 113.659 116.915 112.513 119.35V129.404C113.73 131.839 115.628 133.057 118.206 133.057C120.111 133.057 121.593 132.319 122.653 130.844C123.713 129.368 124.243 127.148 124.243 124.184Z" fill="#0F7EE6"/>
<g filter="url(#filter0_d_85_1528)">
<path d="M18.999 18H176.999V84H18.999V18Z" fill="url(#paint0_linear_85_1528)"/>
</g>
<defs>
<filter id="filter0_d_85_1528" x="16.999" y="16" width="166" height="74" filterUnits="userSpaceOnUse" color-interpolation-filters="sRGB">
<feFlood flood-opacity="0" result="BackgroundImageFix"/>
<feColorMatrix in="SourceAlpha" type="matrix" values="0 0 0 0 0 0 0 0 0 0 0 0 0 0 0 0 0 0 127 0" result="hardAlpha"/>
<feOffset dx="2" dy="2"/>
<feGaussianBlur stdDeviation="2"/>
<feComposite in2="hardAlpha" operator="out"/>
<feColorMatrix type="matrix" values="0 0 0 0 0 0 0 0 0 0 0 0 0 0 0 0 0 0 0.1 0"/>
<feBlend mode="normal" in2="BackgroundImageFix" result="effect1_dropShadow_85_1528"/>
<feBlend mode="normal" in="SourceGraphic" in2="effect1_dropShadow_85_1528" result="shape"/>
</filter>
<linearGradient id="paint0_linear_85_1528" x1="97.999" y1="18" x2="97.999" y2="84" gradientUnits="userSpaceOnUse">
<stop stop-color="#57A5ED"/>
<stop offset="1" stop-color="#0F7EE6"/>
</linearGradient>
</defs>
</svg>
