<svg width="200" height="150" viewBox="0 0 200 150" fill="none" xmlns="http://www.w3.org/2000/svg">
<g clip-path="url(#clip0_85_1515)">
<rect width="200" height="150" fill="white"/>
<path d="M1.33331 148.636L198.667 2.72729" stroke="#0F7EE6" stroke-width="2"/>
<path d="M-19 127.909L178.333 -18" stroke="#0F7EE6" stroke-width="2"/>
<path d="M69 209.909L266.333 64" stroke="#0F7EE6" stroke-width="2"/>
<path d="M-37 107.909L160.333 -38" stroke="#0F7EE6" stroke-width="2"/>
<path d="M-66 72.9091L131.333 -73" stroke="#0F7EE6" stroke-width="2"/>
<path d="M-59 93.9091L138.333 -52" stroke="#0F7EE6" stroke-width="2"/>
<path d="M65 184.909L262.333 39" stroke="#0F7EE6" stroke-width="2"/>
<path d="M36 149.909L233.333 4" stroke="#0F7EE6" stroke-width="2"/>
<path d="M43 170.909L240.333 25" stroke="#0F7EE6" stroke-width="2"/>
<rect x="62" y="38" width="75" height="75" fill="white"/>
<path d="M95.9863 83.6094H79.3066L75.5605 94H70.1465L85.3496 54.1875H89.9434L105.174 94H99.7871L95.9863 83.6094ZM80.8926 79.2891H94.4277L87.6465 60.668L80.8926 79.2891ZM128.6 82.6348C128.6 86.1868 127.783 89.0443 126.15 91.207C124.518 93.3555 122.326 94.4297 119.576 94.4297C116.64 94.4297 114.37 93.3913 112.766 91.3145L112.572 94H108.92V61H112.895V73.3105C114.499 71.3197 116.712 70.3242 119.533 70.3242C122.355 70.3242 124.568 71.3913 126.172 73.5254C127.79 75.6595 128.6 78.5814 128.6 82.291V82.6348ZM124.625 82.1836C124.625 79.4766 124.102 77.3854 123.057 75.9102C122.011 74.4349 120.507 73.6973 118.545 73.6973C115.924 73.6973 114.04 74.9147 112.895 77.3496V87.4043C114.112 89.8392 116.01 91.0566 118.588 91.0566C120.493 91.0566 121.975 90.319 123.035 88.8438C124.095 87.3685 124.625 85.1484 124.625 82.1836Z" fill="black"/>
</g>
<defs>
<clipPath id="clip0_85_1515">
<rect width="200" height="150" fill="white"/>
</clipPath>
</defs>
</svg>
