<svg width="60" height="61" viewBox="0 0 60 61" fill="none" xmlns="http://www.w3.org/2000/svg">
<path d="M7.4415 7.86357C7.47469 7.64786 7.64395 7.47859 7.85966 7.44541L51.6694 0.705443C52.0033 0.654074 52.291 0.941761 52.2397 1.27566L45.4997 45.0854C45.4665 45.3011 45.2972 45.4704 45.0815 45.5036L1.27175 52.2436C0.937855 52.2949 0.650168 52.0072 0.701537 51.6733L7.4415 7.86357Z" stroke="#F5F5F5"/>
<path d="M44.0012 9.58491C44.0699 9.13813 44.4298 8.79301 44.8791 8.74309L58.7027 7.20713C59.3569 7.13445 59.9016 7.70257 59.8015 8.35307L53.0577 52.1881C52.989 52.6349 52.629 52.98 52.1798 53.03L38.3561 54.5659C37.702 54.6386 37.1572 54.0705 37.2573 53.42L44.0012 9.58491Z" fill="#F5F5F5"/>
<path d="M10.712 36.2586C10.7784 35.8271 11.1169 35.4886 11.5484 35.4222L33.9464 31.9764C34.6142 31.8737 35.1895 32.449 35.0868 33.1168L31.6409 55.5148C31.5746 55.9463 31.236 56.2848 30.8046 56.3511L8.40662 59.797C7.73882 59.8997 7.16345 59.3244 7.26619 58.6566L10.712 36.2586Z" fill="#F5F5F5"/>
<path d="M23.4179 17.1998C23.4843 16.7684 23.8228 16.4299 24.2543 16.3635L37.4758 14.3294C38.1436 14.2267 38.719 14.8021 38.6162 15.4698L36.5821 28.6914C36.5158 29.1228 36.1772 29.4613 35.7458 29.5277L22.5243 31.5618C21.8565 31.6645 21.2811 31.0891 21.3839 30.4214L23.4179 17.1998Z" fill="#F5F5F5"/>
</svg>
