<svg width="60" height="60" viewBox="0 0 60 60" fill="none" xmlns="http://www.w3.org/2000/svg">
<path d="M8.26006 7.63282L51.0334 1.0523C51.5343 0.97525 51.9658 1.40678 51.8888 1.90762L45.3082 44.681C45.2585 45.0046 45.0046 45.2585 44.681 45.3082L1.90763 51.8888C1.40678 51.9658 0.97525 51.5343 1.0523 51.0334L7.63282 8.26006C7.6826 7.93649 7.9365 7.6826 8.26006 7.63282Z" stroke="#F5F5F5" stroke-width="1.5"/>
<path d="M43.9429 9.95962C44.046 9.28943 44.5859 8.77176 45.2598 8.69688L58.054 7.27529C59.0352 7.16627 59.8524 8.01846 59.7023 8.9942L53.1159 51.8055C53.0128 52.4757 52.4729 52.9934 51.799 53.0682L39.0048 54.4898C38.0236 54.5988 37.2064 53.7467 37.3565 52.7709L43.9429 9.95962Z" fill="#F5F5F5"/>
<path d="M10.6563 36.6161C10.7559 35.9689 11.2637 35.4612 11.9108 35.3616L33.2725 32.0752C34.2742 31.9211 35.1372 32.7841 34.9831 33.7858L31.6967 55.1475C31.5971 55.7946 31.0894 56.3024 30.4422 56.402L9.08056 59.6884C8.07887 59.8425 7.21582 58.9794 7.36992 57.9777L10.6563 36.6161Z" fill="#F5F5F5"/>
<path d="M23.3622 13.0576C23.4618 12.4104 23.9696 11.9027 24.6167 11.8031L36.8019 9.92846C37.8036 9.77435 38.6667 10.6374 38.5126 11.6391L36.6379 23.8243C36.5384 24.4714 36.0306 24.9792 35.3835 25.0788L23.1982 26.9534C22.1965 27.1075 21.3335 26.2445 21.4876 25.2428L23.3622 13.0576Z" fill="#F5F5F5"/>
</svg>
