<svg width="200" height="150" viewBox="0 0 200 150" fill="none" xmlns="http://www.w3.org/2000/svg">
<rect width="200" height="150" fill="white"/>
<path d="M95.6055 64.6094H78.9258L75.1797 75H69.7656L84.9688 35.1875H89.5625L104.793 75H99.4062L95.6055 64.6094ZM80.5117 60.2891H94.0469L87.2656 41.668L80.5117 60.2891Z" fill="black"/>
<path d="M128.219 63.6348C128.219 67.1868 127.402 70.0443 125.77 72.207C124.137 74.3555 121.945 75.4297 119.195 75.4297C116.259 75.4297 113.989 74.3913 112.385 72.3145L112.191 75H108.539V42H112.514V54.3105C114.118 52.3197 116.331 51.3242 119.152 51.3242C121.974 51.3242 124.187 52.3913 125.791 54.5254C127.41 56.6595 128.219 59.5814 128.219 63.291V63.6348ZM124.244 63.1836C124.244 60.4766 123.721 58.3854 122.676 56.9102C121.63 55.4349 120.126 54.6973 118.164 54.6973C115.543 54.6973 113.66 55.9147 112.514 58.3496V68.4043C113.731 70.8392 115.629 72.0566 118.207 72.0566C120.112 72.0566 121.594 71.319 122.654 69.8438C123.714 68.3685 124.244 66.1484 124.244 63.1836Z" fill="#0F7EE6"/>
<g filter="url(#filter0_d_85_1643)">
<rect x="25" y="91" width="150" height="25" fill="white"/>
<rect x="26" y="92" width="148" height="23" stroke="#0F7EE6" stroke-width="2"/>
</g>
<path d="M122 115V91" stroke="#0F7EE6"/>
<rect x="122" y="92" width="52" height="23" fill="#0F7EE6"/>
<path d="M158 104L148 98.2265V109.774L158 104ZM138 105H149V103H138V105Z" fill="white"/>
<defs>
<filter id="filter0_d_85_1643" x="25" y="91" width="154" height="29" filterUnits="userSpaceOnUse" color-interpolation-filters="sRGB">
<feFlood flood-opacity="0" result="BackgroundImageFix"/>
<feColorMatrix in="SourceAlpha" type="matrix" values="0 0 0 0 0 0 0 0 0 0 0 0 0 0 0 0 0 0 127 0" result="hardAlpha"/>
<feOffset dx="2" dy="2"/>
<feGaussianBlur stdDeviation="1"/>
<feComposite in2="hardAlpha" operator="out"/>
<feColorMatrix type="matrix" values="0 0 0 0 0 0 0 0 0 0 0 0 0 0 0 0 0 0 0.1 0"/>
<feBlend mode="normal" in2="BackgroundImageFix" result="effect1_dropShadow_85_1643"/>
<feBlend mode="normal" in="SourceGraphic" in2="effect1_dropShadow_85_1643" result="shape"/>
</filter>
</defs>
</svg>
