<svg width="200" height="150" viewBox="0 0 200 150" fill="none" xmlns="http://www.w3.org/2000/svg">
<rect width="200" height="150" fill="white"/>
<path d="M95.6055 83.6094H78.9258L75.1797 94H69.7656L84.9688 54.1875H89.5625L104.793 94H99.4062L95.6055 83.6094ZM80.5117 79.2891H94.0469L87.2656 60.668L80.5117 79.2891Z" fill="black"/>
<path d="M128.219 82.6348C128.219 86.1868 127.402 89.0443 125.77 91.207C124.137 93.3555 121.945 94.4297 119.195 94.4297C116.259 94.4297 113.989 93.3913 112.385 91.3145L112.191 94H108.539V61H112.514V73.3105C114.118 71.3197 116.331 70.3242 119.152 70.3242C121.974 70.3242 124.187 71.3913 125.791 73.5254C127.41 75.6595 128.219 78.5814 128.219 82.291V82.6348ZM124.244 82.1836C124.244 79.4766 123.721 77.3854 122.676 75.9102C121.63 74.4349 120.126 73.6973 118.164 73.6973C115.543 73.6973 113.66 74.9147 112.514 77.3496V87.4043C113.731 89.8392 115.629 91.0566 118.207 91.0566C120.112 91.0566 121.594 90.319 122.654 88.8438C123.714 87.3685 124.244 85.1484 124.244 82.1836Z" fill="#0F7EE6"/>
</svg>
