<svg width="200" height="150" viewBox="0 0 200 150" fill="none" xmlns="http://www.w3.org/2000/svg">
<rect width="200" height="150" fill="white"/>
<line x1="25" y1="65" x2="175" y2="65" stroke="#0F7EE6" stroke-width="2"/>
<path d="M42.1035 50.3203H31.3809L28.9727 57H25.4922L35.2656 31.4062H38.2188L48.0098 57H44.5469L42.1035 50.3203ZM32.4004 47.543H41.1016L36.7422 35.5723L32.4004 47.543Z" fill="black"/>
<path d="M60.8594 50.8008C60.8594 52.7383 60.4141 54.2969 59.5234 55.4766C58.6328 56.6484 57.4375 57.2344 55.9375 57.2344C54.3359 57.2344 53.0977 56.668 52.2227 55.5352L52.1172 57H50.125V39H52.293V45.7148C53.168 44.6289 54.375 44.0859 55.9141 44.0859C57.4531 44.0859 58.6602 44.668 59.5352 45.832C60.418 46.9961 60.8594 48.5898 60.8594 50.6133V50.8008ZM58.6914 50.5547C58.6914 49.0781 58.4062 47.9375 57.8359 47.1328C57.2656 46.3281 56.4453 45.9258 55.375 45.9258C53.9453 45.9258 52.918 46.5898 52.293 47.918V53.4023C52.957 54.7305 53.9922 55.3945 55.3984 55.3945C56.4375 55.3945 57.2461 54.9922 57.8242 54.1875C58.4023 53.3828 58.6914 52.1719 58.6914 50.5547Z" fill="#0F7EE6"/>
<line x1="166.192" y1="55.6065" x2="156.293" y2="45.707" stroke="#0F7EE6" stroke-width="2"/>
<path d="M174.899 46L165 55.8995" stroke="#0F7EE6" stroke-width="2"/>
<line x1="25" y1="116" x2="175" y2="116" stroke="#0F7EE6" stroke-width="2"/>
<path d="M42.1035 101.32H31.3809L28.9727 108H25.4922L35.2656 82.4062H38.2188L48.0098 108H44.5469L42.1035 101.32ZM32.4004 98.543H41.1016L36.7422 86.5723L32.4004 98.543Z" fill="black"/>
<path d="M60.8594 101.801C60.8594 103.738 60.4141 105.297 59.5234 106.477C58.6328 107.648 57.4375 108.234 55.9375 108.234C54.3359 108.234 53.0977 107.668 52.2227 106.535L52.1172 108H50.125V90H52.293V96.7148C53.168 95.6289 54.375 95.0859 55.9141 95.0859C57.4531 95.0859 58.6602 95.668 59.5352 96.832C60.418 97.9961 60.8594 99.5898 60.8594 101.613V101.801ZM58.6914 101.555C58.6914 100.078 58.4062 98.9375 57.8359 98.1328C57.2656 97.3281 56.4453 96.9258 55.375 96.9258C53.9453 96.9258 52.918 97.5898 52.293 98.918V104.402C52.957 105.73 53.9922 106.395 55.3984 106.395C56.4375 106.395 57.2461 105.992 57.8242 105.188C58.4023 104.383 58.6914 103.172 58.6914 101.555Z" fill="#0F7EE6"/>
<line x1="167.192" y1="106.607" x2="157.293" y2="96.707" stroke="#0F7EE6" stroke-width="2"/>
<line x1="175.607" y1="96.7071" x2="165.707" y2="106.607" stroke="#0F7EE6" stroke-width="2"/>
</svg>
