<svg width="200" height="150" viewBox="0 0 200 150" fill="none" xmlns="http://www.w3.org/2000/svg">
<rect width="200" height="150" fill="white"/>
<g filter="url(#filter0_d_85_1691)">
<rect x="107" y="41" width="30" height="30" fill="url(#paint0_linear_85_1691)"/>
</g>
<g filter="url(#filter1_d_85_1691)">
<rect x="150" y="41" width="30" height="30" fill="url(#paint1_linear_85_1691)"/>
</g>
<g filter="url(#filter2_d_85_1691)">
<rect x="107" y="80" width="30" height="30" fill="url(#paint2_linear_85_1691)"/>
</g>
<g filter="url(#filter3_d_85_1691)">
<rect x="150" y="80" width="30" height="30" fill="url(#paint3_linear_85_1691)"/>
</g>
<path d="M50.6055 85.6094H33.9258L30.1797 96H24.7656L39.9688 56.1875H44.5625L59.793 96H54.4062L50.6055 85.6094ZM35.5117 81.2891H49.0469L42.2656 62.668L35.5117 81.2891Z" fill="black"/>
<path d="M83.2188 84.6348C83.2188 88.1868 82.4023 91.0443 80.7695 93.207C79.1367 95.3555 76.9453 96.4297 74.1953 96.4297C71.2591 96.4297 68.9889 95.3913 67.3848 93.3145L67.1914 96H63.5391V63H67.5137V75.3105C69.1178 73.3197 71.3307 72.3242 74.1523 72.3242C76.974 72.3242 79.1868 73.3913 80.791 75.5254C82.4095 77.6595 83.2188 80.5814 83.2188 84.291V84.6348ZM79.2441 84.1836C79.2441 81.4766 78.7214 79.3854 77.6758 77.9102C76.6302 76.4349 75.1263 75.6973 73.1641 75.6973C70.543 75.6973 68.6595 76.9147 67.5137 79.3496V89.4043C68.7311 91.8392 70.6289 93.0566 73.207 93.0566C75.112 93.0566 76.5944 92.319 77.6543 90.8438C78.7142 89.3685 79.2441 87.1484 79.2441 84.1836Z" fill="#0F7EE6"/>
<defs>
<filter id="filter0_d_85_1691" x="107" y="41" width="34" height="34" filterUnits="userSpaceOnUse" color-interpolation-filters="sRGB">
<feFlood flood-opacity="0" result="BackgroundImageFix"/>
<feColorMatrix in="SourceAlpha" type="matrix" values="0 0 0 0 0 0 0 0 0 0 0 0 0 0 0 0 0 0 127 0" result="hardAlpha"/>
<feOffset dx="2" dy="2"/>
<feGaussianBlur stdDeviation="1"/>
<feComposite in2="hardAlpha" operator="out"/>
<feColorMatrix type="matrix" values="0 0 0 0 0 0 0 0 0 0 0 0 0 0 0 0 0 0 0.1 0"/>
<feBlend mode="normal" in2="BackgroundImageFix" result="effect1_dropShadow_85_1691"/>
<feBlend mode="normal" in="SourceGraphic" in2="effect1_dropShadow_85_1691" result="shape"/>
</filter>
<filter id="filter1_d_85_1691" x="150" y="41" width="34" height="34" filterUnits="userSpaceOnUse" color-interpolation-filters="sRGB">
<feFlood flood-opacity="0" result="BackgroundImageFix"/>
<feColorMatrix in="SourceAlpha" type="matrix" values="0 0 0 0 0 0 0 0 0 0 0 0 0 0 0 0 0 0 127 0" result="hardAlpha"/>
<feOffset dx="2" dy="2"/>
<feGaussianBlur stdDeviation="1"/>
<feComposite in2="hardAlpha" operator="out"/>
<feColorMatrix type="matrix" values="0 0 0 0 0 0 0 0 0 0 0 0 0 0 0 0 0 0 0.1 0"/>
<feBlend mode="normal" in2="BackgroundImageFix" result="effect1_dropShadow_85_1691"/>
<feBlend mode="normal" in="SourceGraphic" in2="effect1_dropShadow_85_1691" result="shape"/>
</filter>
<filter id="filter2_d_85_1691" x="107" y="80" width="34" height="34" filterUnits="userSpaceOnUse" color-interpolation-filters="sRGB">
<feFlood flood-opacity="0" result="BackgroundImageFix"/>
<feColorMatrix in="SourceAlpha" type="matrix" values="0 0 0 0 0 0 0 0 0 0 0 0 0 0 0 0 0 0 127 0" result="hardAlpha"/>
<feOffset dx="2" dy="2"/>
<feGaussianBlur stdDeviation="1"/>
<feComposite in2="hardAlpha" operator="out"/>
<feColorMatrix type="matrix" values="0 0 0 0 0 0 0 0 0 0 0 0 0 0 0 0 0 0 0.1 0"/>
<feBlend mode="normal" in2="BackgroundImageFix" result="effect1_dropShadow_85_1691"/>
<feBlend mode="normal" in="SourceGraphic" in2="effect1_dropShadow_85_1691" result="shape"/>
</filter>
<filter id="filter3_d_85_1691" x="150" y="80" width="34" height="34" filterUnits="userSpaceOnUse" color-interpolation-filters="sRGB">
<feFlood flood-opacity="0" result="BackgroundImageFix"/>
<feColorMatrix in="SourceAlpha" type="matrix" values="0 0 0 0 0 0 0 0 0 0 0 0 0 0 0 0 0 0 127 0" result="hardAlpha"/>
<feOffset dx="2" dy="2"/>
<feGaussianBlur stdDeviation="1"/>
<feComposite in2="hardAlpha" operator="out"/>
<feColorMatrix type="matrix" values="0 0 0 0 0 0 0 0 0 0 0 0 0 0 0 0 0 0 0.1 0"/>
<feBlend mode="normal" in2="BackgroundImageFix" result="effect1_dropShadow_85_1691"/>
<feBlend mode="normal" in="SourceGraphic" in2="effect1_dropShadow_85_1691" result="shape"/>
</filter>
<linearGradient id="paint0_linear_85_1691" x1="122" y1="41" x2="122" y2="71" gradientUnits="userSpaceOnUse">
<stop stop-color="#57A5ED"/>
<stop offset="1" stop-color="#0F7EE6"/>
</linearGradient>
<linearGradient id="paint1_linear_85_1691" x1="165" y1="41" x2="165" y2="71" gradientUnits="userSpaceOnUse">
<stop stop-color="#57A5ED"/>
<stop offset="1" stop-color="#0F7EE6"/>
</linearGradient>
<linearGradient id="paint2_linear_85_1691" x1="122" y1="80" x2="122" y2="110" gradientUnits="userSpaceOnUse">
<stop stop-color="#57A5ED"/>
<stop offset="1" stop-color="#0F7EE6"/>
</linearGradient>
<linearGradient id="paint3_linear_85_1691" x1="165" y1="80" x2="165" y2="110" gradientUnits="userSpaceOnUse">
<stop stop-color="#57A5ED"/>
<stop offset="1" stop-color="#0F7EE6"/>
</linearGradient>
</defs>
</svg>
