<svg width="84" height="85" viewBox="0 0 84 85" fill="none" xmlns="http://www.w3.org/2000/svg">
<path d="M20.2327 6.77051C8.10324 14.1354 0 27.4698 0 42.6969C0 57.5686 8.63617 76.2888 24.4036 74.5559C31.2429 73.6132 35.946 70.0119 37.326 64.4861C37.9052 62.6267 37.8752 59.5934 37.85 57.0399V57.0397C37.8404 56.0727 37.8315 55.1746 37.8567 54.435L42.9141 47.763L49.5941 59.1147L47.8122 60.1574C47.6867 60.2473 47.5935 60.3762 47.5426 60.522C47.4595 60.8238 47.6545 61.1137 47.9393 61.2104L56.547 64.9931C56.7114 65.0677 56.9115 65.0575 57.0675 64.966C57.2251 64.8761 57.3336 64.7083 57.3506 64.5268L58.1864 55.6761L58.239 55.0827C58.3068 54.6351 57.7575 54.2824 57.3794 54.5266L55.5806 55.5846L47.4561 41.7744L54.7041 32.22L56.3503 33.468C56.4724 33.568 56.6334 33.5917 56.7877 33.5799V33.5697C57.0929 33.5409 57.298 33.2408 57.2641 32.9457L57.4862 23.549C57.4913 23.3676 57.4049 23.1879 57.259 23.0777C57.1149 22.9658 56.9183 22.9302 56.7436 22.9827L48.253 25.5769L48.2022 25.5913L48.1784 25.598C47.6728 25.7403 47.0619 25.9123 47.351 26.5858C47.3223 26.6432 48.3669 27.4233 48.8839 27.8094L48.8843 27.8097C49.0386 27.9249 49.1459 28.005 49.1634 28.0202L37.8635 42.924V24.5325H39.9268C40.0879 24.5375 40.2286 24.4545 40.3456 24.3527V24.346C40.5711 24.1357 40.5422 23.7813 40.3456 23.5626L34.8371 15.9327C34.7303 15.7852 34.5523 15.6936 34.3709 15.6953C34.1895 15.6936 34.0115 15.7852 33.9064 15.9327L28.7065 23.1235L28.3573 23.6101V23.6203C28.0792 23.9695 28.381 24.5443 28.8218 24.5257H30.9055V60.3541C30.8936 61.6614 30.6376 62.9805 30.0646 64.1589C29.1931 66.0121 27.3824 67.2617 25.4072 67.6856C20.5915 68.7191 16.1874 66.5395 13.2374 62.6347C8.71786 56.4155 6.86382 49.5331 6.86383 42.6969C6.86383 29.9915 13.6075 18.8611 23.7108 12.69L20.2327 6.77051Z" fill="black"/>
<path d="M62.79 79.1978L59.3119 73.2783C54.2022 76.1769 48.2946 77.8319 42.0005 77.8319V77.8226C38.5686 77.8226 34.8227 77.3094 31.3779 76.1976C27.6056 78 23.2595 78.6595 19.0176 77.883C26.4751 82.7346 34.1561 84.6957 42.0005 84.6957C49.5638 84.6957 56.6602 82.6965 62.79 79.1978Z" fill="#6AB946"/>
<path d="M77.0432 45.2715C76.2717 55.9127 70.7613 65.2398 62.6123 71.1523L66.1033 77.0938C76.2612 69.9632 83.1169 58.4476 83.9208 45.2966L77.0432 45.2715Z" fill="#FA501E"/>
<path d="M77.1113 41.3501C76.7297 31.2086 72.0499 22.167 64.8408 15.9943L69.0091 10.5293C77.8615 17.9703 83.5981 28.9986 83.9801 41.3752L77.1113 41.3501Z" fill="#FCB92C"/>
<path d="M42.0001 0.695312C50.8766 0.695312 59.1099 3.44894 65.8925 8.14857L61.7243 13.6135C56.101 9.79219 49.3113 7.55914 42.0001 7.55914C36.7008 7.55914 31.6755 8.7323 27.1698 10.8331L23.6787 4.89146C29.2155 2.20311 35.4317 0.695312 42.0001 0.695312Z" fill="#0F7EE6"/>
</svg>
