<svg width="40" height="40" viewBox="0 0 40 40" fill="none" xmlns="http://www.w3.org/2000/svg">
<path d="M5.50667 5.08852L34.022 0.701538C34.3559 0.650169 34.6436 0.937856 34.5923 1.27175L30.2053 29.7871C30.1721 30.0028 30.0028 30.1721 29.7871 30.2053L1.27175 34.5923C0.937856 34.6436 0.650169 34.3559 0.701538 34.022L5.08852 5.50668C5.1217 5.29097 5.29097 5.1217 5.50667 5.08852Z" stroke="#F5F5F5"/>
<path d="M29.2954 6.63974C29.3641 6.19295 29.7241 5.84783 30.1733 5.79791L38.7027 4.8502C39.3569 4.77752 39.9016 5.34564 39.8016 5.99614L35.4107 34.5368C35.3419 34.9836 34.982 35.3287 34.5327 35.3786L26.0033 36.3263C25.3492 36.399 24.8045 35.8309 24.9045 35.1804L29.2954 6.63974Z" fill="#F5F5F5"/>
<path d="M7.10427 24.4106C7.17064 23.9792 7.50916 23.6407 7.94058 23.5743L22.1816 21.3834C22.8494 21.2806 23.4247 21.856 23.322 22.5238L21.1311 36.7648C21.0647 37.1962 20.7262 37.5347 20.2948 37.6011L6.05378 39.792C5.38598 39.8948 4.81061 39.3194 4.91334 38.6516L7.10427 24.4106Z" fill="#F5F5F5"/>
<path d="M14.9748 9.30514C15.0412 8.87372 15.3797 8.53519 15.8111 8.46882L23.9345 7.21907C24.6023 7.11633 25.1777 7.69171 25.0749 8.3595L23.8252 16.4829C23.7588 16.9143 23.4203 17.2528 22.9889 17.3192L14.8655 18.569C14.1977 18.6717 13.6223 18.0963 13.7251 17.4285L14.9748 9.30514Z" fill="#F5F5F5"/>
</svg>
