<svg width="154" height="53" viewBox="0 0 154 53" fill="none" xmlns="http://www.w3.org/2000/svg">
<rect width="154" height="53" fill="#0F7EE6"/>
<path d="M25.1429 36.425V41H8.99917L8.99917 13.7937L14.6242 13.7937L14.6242 36.425H25.1429ZM33.917 21.3687C35.367 21.3687 36.6858 21.6 37.8733 22.0625C39.0608 22.525 40.0795 23.1875 40.9295 24.05C41.7795 24.9 42.4358 25.9375 42.8983 27.1625C43.3608 28.3875 43.592 29.7687 43.592 31.3062C43.592 32.8437 43.3608 34.2312 42.8983 35.4687C42.4358 36.6937 41.7795 37.7375 40.9295 38.6C40.0795 39.4625 39.0608 40.125 37.8733 40.5875C36.6858 41.05 35.367 41.2813 33.917 41.2813C32.4545 41.2813 31.1233 41.05 29.9233 40.5875C28.7358 40.125 27.717 39.4625 26.867 38.6C26.017 37.7375 25.3545 36.6937 24.8795 35.4687C24.417 34.2312 24.1858 32.8437 24.1858 31.3062C24.1858 29.7687 24.417 28.3875 24.8795 27.1625C25.3545 25.9375 26.017 24.9 26.867 24.05C27.717 23.1875 28.7358 22.525 29.9233 22.0625C31.1233 21.6 32.4545 21.3687 33.917 21.3687ZM33.917 37.4C35.392 37.4 36.4858 36.8937 37.1983 35.8812C37.9108 34.8562 38.267 33.3375 38.267 31.325C38.267 29.325 37.9108 27.8187 37.1983 26.8062C36.4858 25.7812 35.392 25.2687 33.917 25.2687C32.4045 25.2687 31.292 25.7812 30.5795 26.8062C29.867 27.8187 29.5108 29.325 29.5108 31.325C29.5108 33.3375 29.867 34.8562 30.5795 35.8812C31.292 36.8937 32.4045 37.4 33.917 37.4ZM51.2751 41.3C50.4001 41.3 49.6251 41.175 48.9501 40.925C48.2751 40.6625 47.7064 40.2937 47.2439 39.8187C46.7814 39.3437 46.4314 38.7687 46.1939 38.0937C45.9564 37.4187 45.8376 36.6562 45.8376 35.8062V25.3812H44.0189C43.7439 25.3812 43.5064 25.2937 43.3064 25.1187C43.1189 24.9437 43.0251 24.6812 43.0251 24.3312L43.0251 22.3062L46.1189 21.7437L47.1689 16.7375C47.3064 16.175 47.6876 15.8937 48.3126 15.8937H51.0126V21.7812H56.0001L56.0001 25.3812H51.0126V35.4687C51.0126 36.0062 51.1376 36.4312 51.3876 36.7437C51.6501 37.0562 52.0189 37.2125 52.4939 37.2125C52.7439 37.2125 52.9564 37.1875 53.1314 37.1375C53.3064 37.075 53.4564 37.0125 53.5814 36.95C53.7064 36.875 53.8189 36.8125 53.9189 36.7625C54.0314 36.7 54.1439 36.6687 54.2564 36.6687C54.4064 36.6687 54.5314 36.7062 54.6314 36.7812C54.7314 36.8437 54.8314 36.9562 54.9314 37.1187L56.4876 39.5937C55.7751 40.1562 54.9689 40.5812 54.0689 40.8687C53.1689 41.1563 52.2376 41.3 51.2751 41.3ZM61.7538 24.8562C62.3663 23.7562 63.0725 22.8875 63.8725 22.25C64.6725 21.6125 65.61 21.2938 66.685 21.2938C67.56 21.2938 68.2725 21.5 68.8225 21.9125L68.485 25.7375C68.4225 25.9875 68.3225 26.1625 68.185 26.2625C68.06 26.35 67.885 26.3937 67.66 26.3937C67.46 26.3937 67.1725 26.3687 66.7975 26.3187C66.4225 26.2562 66.0725 26.225 65.7475 26.225C65.2725 26.225 64.8475 26.2937 64.4725 26.4312C64.11 26.5687 63.785 26.7625 63.4975 27.0125C63.21 27.2625 62.9475 27.5687 62.71 27.9312C62.485 28.2937 62.2725 28.7062 62.0725 29.1687V41H56.8975L56.8975 21.6687H59.9538C60.4788 21.6687 60.8413 21.7625 61.0413 21.95C61.2413 22.1375 61.385 22.4625 61.4725 22.925L61.7538 24.8562ZM80.9813 29.0562C80.9813 28.5187 80.9063 28.0062 80.7563 27.5187C80.6188 27.0312 80.3938 26.6 80.0813 26.225C79.7688 25.85 79.375 25.5562 78.9 25.3437C78.425 25.1187 77.8563 25.0062 77.1938 25.0062C75.9563 25.0062 74.9875 25.3562 74.2875 26.0562C73.5875 26.7562 73.1313 27.7562 72.9188 29.0562H80.9813ZM72.8438 32.1312C73.0063 33.9437 73.5188 35.2687 74.3813 36.1062C75.2563 36.9437 76.3938 37.3625 77.7938 37.3625C78.5063 37.3625 79.1188 37.2812 79.6313 37.1187C80.1563 36.9437 80.6125 36.7562 81 36.5562C81.4 36.3437 81.7563 36.1562 82.0688 35.9937C82.3938 35.8187 82.7125 35.7312 83.025 35.7312C83.425 35.7312 83.7375 35.8812 83.9625 36.1813L85.4626 38.0562C84.9126 38.6937 84.3063 39.225 83.6438 39.65C82.9813 40.0625 82.2938 40.3937 81.5813 40.6437C80.8688 40.8812 80.15 41.0438 79.425 41.1313C78.7 41.2313 78 41.2813 77.325 41.2813C75.975 41.2813 74.7125 41.0625 73.5375 40.625C72.375 40.175 71.3563 39.5187 70.4813 38.6562C69.6188 37.7812 68.9375 36.7 68.4375 35.4125C67.9375 34.125 67.6875 32.6312 67.6875 30.9312C67.6875 29.6187 67.9 28.3812 68.325 27.2187C68.7625 26.0562 69.3875 25.0437 70.2 24.1812C71.0125 23.3187 72 22.6375 73.1625 22.1375C74.325 21.625 75.6375 21.3687 77.1 21.3687C78.3375 21.3687 79.475 21.5687 80.5125 21.9687C81.5625 22.3562 82.4625 22.925 83.2125 23.675C83.975 24.425 84.5626 25.35 84.9751 26.45C85.4001 27.5375 85.6126 28.7812 85.6126 30.1812C85.6126 30.5687 85.5938 30.8875 85.5563 31.1375C85.5188 31.3875 85.4563 31.5875 85.3688 31.7375C85.2813 31.8875 85.1625 31.9937 85.0125 32.0562C84.8626 32.1062 84.6688 32.1312 84.4313 32.1312H72.8438ZM75.6375 13.4937C76.175 13.4937 76.575 13.5812 76.8375 13.7562C77.1125 13.9312 77.35 14.1937 77.55 14.5437L80.1563 19.1187H77.2313C76.8438 19.1187 76.525 19.0687 76.275 18.9687C76.0375 18.8562 75.7938 18.6687 75.5438 18.4062L70.8 13.4937H75.6375ZM92.1238 13.0437V28.9062H92.9863C93.3113 28.9062 93.5675 28.8625 93.755 28.775C93.9425 28.675 94.13 28.5 94.3175 28.25L98.5925 22.55C98.805 22.2625 99.0425 22.0437 99.305 21.8937C99.58 21.7437 99.9238 21.6687 100.336 21.6687H105.061L99.5113 28.7187C99.0738 29.3062 98.5675 29.7687 97.9925 30.1062C98.28 30.3062 98.53 30.5375 98.7425 30.8C98.955 31.0625 99.1613 31.3562 99.3613 31.6812L105.343 41H100.693C100.293 41 99.9488 40.9375 99.6613 40.8125C99.3738 40.675 99.1363 40.4375 98.9488 40.1L94.5988 32.9937C94.4238 32.6937 94.2425 32.5 94.055 32.4125C93.8675 32.325 93.5863 32.2812 93.2113 32.2812H92.1238V41H86.9488V13.0437L92.1238 13.0437ZM124.419 36.5C125.331 36.5 126.15 36.35 126.875 36.05C127.6 35.7375 128.213 35.3 128.713 34.7375C129.213 34.175 129.594 33.4937 129.856 32.6937C130.119 31.8937 130.25 30.9937 130.25 29.9937V13.7937L135.875 13.7937V29.9937C135.875 31.6437 135.606 33.1625 135.069 34.55C134.544 35.925 133.788 37.1125 132.8 38.1125C131.813 39.1125 130.613 39.8937 129.2 40.4562C127.788 41.0188 126.194 41.3 124.419 41.3C122.644 41.3 121.044 41.0188 119.619 40.4562C118.206 39.8937 117.006 39.1125 116.019 38.1125C115.031 37.1125 114.269 35.925 113.731 34.55C113.206 33.1625 112.944 31.6437 112.944 29.9937V13.7937H118.569V29.9937C118.569 30.9937 118.7 31.8937 118.963 32.6937C119.225 33.4937 119.606 34.175 120.106 34.7375C120.606 35.3 121.219 35.7375 121.944 36.05C122.669 36.35 123.494 36.5 124.419 36.5ZM145.011 41H139.348V13.7937L145.011 13.7937V41Z" fill="white"/>
</svg>
