<svg width="200" height="150" viewBox="0 0 200 150" fill="none" xmlns="http://www.w3.org/2000/svg">
<g clip-path="url(#clip0_87_1497)">
<rect width="200" height="150" fill="white"/>
<g filter="url(#filter0_d_87_1497)">
<rect x="67" y="53" width="70" height="60" fill="white"/>
<rect x="68" y="54" width="68" height="58" stroke="#0F7EE6" stroke-width="2"/>
</g>
<rect y="11" width="207" height="44" fill="url(#paint0_linear_87_1497)"/>
<path d="M100.402 37.5469H93.2539L91.6484 42H89.3281L95.8438 24.9375H97.8125L104.34 42H102.031L100.402 37.5469ZM93.9336 35.6953H99.7344L96.8281 27.7148L93.9336 35.6953Z" fill="#0D0302"/>
<path d="M112.906 37.8672C112.906 39.1589 112.609 40.1979 112.016 40.9844C111.422 41.7656 110.625 42.1562 109.625 42.1562C108.557 42.1562 107.732 41.7786 107.148 41.0234L107.078 42H105.75V30H107.195V34.4766C107.779 33.7526 108.583 33.3906 109.609 33.3906C110.635 33.3906 111.44 33.7786 112.023 34.5547C112.612 35.3307 112.906 36.3932 112.906 37.7422V37.8672ZM111.461 37.7031C111.461 36.7188 111.271 35.9583 110.891 35.4219C110.51 34.8854 109.964 34.6172 109.25 34.6172C108.297 34.6172 107.612 35.0599 107.195 35.9453V39.6016C107.638 40.487 108.328 40.9297 109.266 40.9297C109.958 40.9297 110.497 40.6615 110.883 40.125C111.268 39.5885 111.461 38.7812 111.461 37.7031Z" fill="white"/>
<path d="M100.104 88.3203H89.3809L86.9727 95H83.4922L93.2656 69.4062H96.2188L106.01 95H102.547L100.104 88.3203ZM90.4004 85.543H99.1016L94.7422 73.5723L90.4004 85.543Z" fill="black"/>
<path d="M118.859 88.8008C118.859 90.7383 118.414 92.2969 117.523 93.4766C116.633 94.6484 115.438 95.2344 113.938 95.2344C112.336 95.2344 111.098 94.668 110.223 93.5352L110.117 95H108.125V77H110.293V83.7148C111.168 82.6289 112.375 82.0859 113.914 82.0859C115.453 82.0859 116.66 82.668 117.535 83.832C118.418 84.9961 118.859 86.5898 118.859 88.6133V88.8008ZM116.691 88.5547C116.691 87.0781 116.406 85.9375 115.836 85.1328C115.266 84.3281 114.445 83.9258 113.375 83.9258C111.945 83.9258 110.918 84.5898 110.293 85.918V91.4023C110.957 92.7305 111.992 93.3945 113.398 93.3945C114.438 93.3945 115.246 92.9922 115.824 92.1875C116.402 91.3828 116.691 90.1719 116.691 88.5547Z" fill="#0F7EE6"/>
<path d="M139.402 37.5469H132.254L130.648 42H128.328L134.844 24.9375H136.812L143.34 42H141.031L139.402 37.5469ZM132.934 35.6953H138.734L135.828 27.7148L132.934 35.6953Z" fill="#0D0302"/>
<path d="M151.906 37.8672C151.906 39.1589 151.609 40.1979 151.016 40.9844C150.422 41.7656 149.625 42.1562 148.625 42.1562C147.557 42.1562 146.732 41.7786 146.148 41.0234L146.078 42H144.75V30H146.195V34.4766C146.779 33.7526 147.583 33.3906 148.609 33.3906C149.635 33.3906 150.44 33.7786 151.023 34.5547C151.612 35.3307 151.906 36.3932 151.906 37.7422V37.8672ZM150.461 37.7031C150.461 36.7188 150.271 35.9583 149.891 35.4219C149.51 34.8854 148.964 34.6172 148.25 34.6172C147.297 34.6172 146.612 35.0599 146.195 35.9453V39.6016C146.638 40.487 147.328 40.9297 148.266 40.9297C148.958 40.9297 149.497 40.6615 149.883 40.125C150.268 39.5885 150.461 38.7812 150.461 37.7031Z" fill="white"/>
<g filter="url(#filter1_d_87_1497)">
<circle cx="31" cy="33" r="15" fill="white"/>
</g>
<line x1="167" y1="27" x2="187" y2="27" stroke="white" stroke-width="2"/>
<line x1="167" y1="32" x2="187" y2="32" stroke="white" stroke-width="2"/>
<line x1="167" y1="37" x2="187" y2="37" stroke="white" stroke-width="2"/>
<rect x="-11" y="-4" width="220" height="15" fill="#0D0302"/>
</g>
<defs>
<filter id="filter0_d_87_1497" x="67" y="53" width="74" height="64" filterUnits="userSpaceOnUse" color-interpolation-filters="sRGB">
<feFlood flood-opacity="0" result="BackgroundImageFix"/>
<feColorMatrix in="SourceAlpha" type="matrix" values="0 0 0 0 0 0 0 0 0 0 0 0 0 0 0 0 0 0 127 0" result="hardAlpha"/>
<feOffset dx="2" dy="2"/>
<feGaussianBlur stdDeviation="1"/>
<feComposite in2="hardAlpha" operator="out"/>
<feColorMatrix type="matrix" values="0 0 0 0 0 0 0 0 0 0 0 0 0 0 0 0 0 0 0.1 0"/>
<feBlend mode="normal" in2="BackgroundImageFix" result="effect1_dropShadow_87_1497"/>
<feBlend mode="normal" in="SourceGraphic" in2="effect1_dropShadow_87_1497" result="shape"/>
</filter>
<filter id="filter1_d_87_1497" x="16" y="18" width="34" height="34" filterUnits="userSpaceOnUse" color-interpolation-filters="sRGB">
<feFlood flood-opacity="0" result="BackgroundImageFix"/>
<feColorMatrix in="SourceAlpha" type="matrix" values="0 0 0 0 0 0 0 0 0 0 0 0 0 0 0 0 0 0 127 0" result="hardAlpha"/>
<feOffset dx="2" dy="2"/>
<feGaussianBlur stdDeviation="1"/>
<feComposite in2="hardAlpha" operator="out"/>
<feColorMatrix type="matrix" values="0 0 0 0 0 0 0 0 0 0 0 0 0 0 0 0 0 0 0.1 0"/>
<feBlend mode="normal" in2="BackgroundImageFix" result="effect1_dropShadow_87_1497"/>
<feBlend mode="normal" in="SourceGraphic" in2="effect1_dropShadow_87_1497" result="shape"/>
</filter>
<linearGradient id="paint0_linear_87_1497" x1="103.5" y1="11" x2="103.5" y2="55" gradientUnits="userSpaceOnUse">
<stop stop-color="#57A5ED"/>
<stop offset="1" stop-color="#0F7EE6"/>
</linearGradient>
<clipPath id="clip0_87_1497">
<rect width="200" height="150" fill="white"/>
</clipPath>
</defs>
</svg>
