<svg width="200" height="150" viewBox="0 0 200 150" fill="none" xmlns="http://www.w3.org/2000/svg">
<rect width="200" height="150" fill="white"/>
<g filter="url(#filter0_d_85_1809)">
<rect x="55" y="53" width="90" height="45" fill="url(#paint0_linear_85_1809)"/>
</g>
<path d="M98.1035 80.3203H87.3809L84.9727 87H81.4922L91.2656 61.4062H94.2188L104.01 87H100.547L98.1035 80.3203ZM88.4004 77.543H97.1016L92.7422 65.5723L88.4004 77.543Z" fill="black"/>
<path d="M116.859 80.8008C116.859 82.7383 116.414 84.2969 115.523 85.4766C114.633 86.6484 113.438 87.2344 111.938 87.2344C110.336 87.2344 109.098 86.668 108.223 85.5352L108.117 87H106.125V69H108.293V75.7148C109.168 74.6289 110.375 74.0859 111.914 74.0859C113.453 74.0859 114.66 74.668 115.535 75.832C116.418 76.9961 116.859 78.5898 116.859 80.6133V80.8008ZM114.691 80.5547C114.691 79.0781 114.406 77.9375 113.836 77.1328C113.266 76.3281 112.445 75.9258 111.375 75.9258C109.945 75.9258 108.918 76.5898 108.293 77.918V83.4023C108.957 84.7305 109.992 85.3945 111.398 85.3945C112.438 85.3945 113.246 84.9922 113.824 84.1875C114.402 83.3828 114.691 82.1719 114.691 80.5547Z" fill="white"/>
<path d="M10 75L25 83.6603V66.3397L10 75Z" fill="#0F7EE6"/>
<path d="M190 75L175 66.3397V83.6603L190 75Z" fill="#0F7EE6"/>
<defs>
<filter id="filter0_d_85_1809" x="55" y="53" width="94" height="49" filterUnits="userSpaceOnUse" color-interpolation-filters="sRGB">
<feFlood flood-opacity="0" result="BackgroundImageFix"/>
<feColorMatrix in="SourceAlpha" type="matrix" values="0 0 0 0 0 0 0 0 0 0 0 0 0 0 0 0 0 0 127 0" result="hardAlpha"/>
<feOffset dx="2" dy="2"/>
<feGaussianBlur stdDeviation="1"/>
<feComposite in2="hardAlpha" operator="out"/>
<feColorMatrix type="matrix" values="0 0 0 0 0 0 0 0 0 0 0 0 0 0 0 0 0 0 0.1 0"/>
<feBlend mode="normal" in2="BackgroundImageFix" result="effect1_dropShadow_85_1809"/>
<feBlend mode="normal" in="SourceGraphic" in2="effect1_dropShadow_85_1809" result="shape"/>
</filter>
<linearGradient id="paint0_linear_85_1809" x1="100" y1="53" x2="100" y2="98" gradientUnits="userSpaceOnUse">
<stop stop-color="#57A5ED"/>
<stop offset="0.572375" stop-color="#2E8FE9"/>
<stop offset="1" stop-color="#0F7EE6"/>
</linearGradient>
</defs>
</svg>
